HIERARCHY
ROOT Hips
{
  OFFSET 16.3052 96.4407 -7.85431
  CHANNELS 6 Xposition Yposition Zposition Zrotation Xrotation Yrotation
  JOINT Chest
  {
    OFFSET 0 10.5691 -1.07959
    CHANNELS 6 Xposition Yposition Zposition Zrotation Xrotation Yrotation
    JOINT Chest2
    {
      OFFSET 0 11.6675 1.08235
      CHANNELS 6 Xposition Yposition Zposition Zrotation Xrotation Yrotation
      JOINT Chest3
      {
        OFFSET 0 10.5876 0
        CHANNELS 6 Xposition Yposition Zposition Zrotation Xrotation Yrotation
        JOINT Chest4
        {
          OFFSET 0 10.5876 0
          CHANNELS 6 Xposition Yposition Zposition Zrotation Xrotation Yrotation
          JOINT Neck
          {
            OFFSET 0 14.88 0
            CHANNELS 6 Xposition Yposition Zposition Zrotation Xrotation Yrotation
            JOINT Head
            {
              OFFSET 0 9.61466 2.16553
              CHANNELS 6 Xposition Yposition Zposition Zrotation Xrotation Yrotation
              End Site
              {
                OFFSET 0 0 0
              }
            }
          }
          JOINT RightCollar
          {
            OFFSET -3.23953 8.30385 0
            CHANNELS 6 Xposition Yposition Zposition Zrotation Xrotation Yrotation
            JOINT RightShoulder
            {
              OFFSET -15.1725 0 0
              CHANNELS 6 Xposition Yposition Zposition Zrotation Xrotation Yrotation
              JOINT RightElbow
              {
                OFFSET -32.4113 0 0
                CHANNELS 6 Xposition Yposition Zposition Zrotation Xrotation Yrotation
                JOINT RightWrist
                {
                  OFFSET -26.4919 0 1.0813
                  CHANNELS 6 Xposition Yposition Zposition Zrotation Xrotation Yrotation
                  End Site
                  {
                    OFFSET 0 0 0
                  }
                }
              }
            }
          }
          JOINT LeftCollar
          {
            OFFSET 3.23953 8.30385 0
            CHANNELS 6 Xposition Yposition Zposition Zrotation Xrotation Yrotation
            JOINT LeftShoulder
            {
              OFFSET 15.1725 0 0
              CHANNELS 6 Xposition Yposition Zposition Zrotation Xrotation Yrotation
              JOINT LeftElbow
              {
                OFFSET 32.4113 0 0
                CHANNELS 6 Xposition Yposition Zposition Zrotation Xrotation Yrotation
                JOINT LeftWrist
                {
                  OFFSET 26.4919 0 1.0813
                  CHANNELS 6 Xposition Yposition Zposition Zrotation Xrotation Yrotation
                  End Site
                  {
                    OFFSET 0 0 0
                  }
                }
              }
            }
          }
        }
      }
    }
  }
  JOINT RightHip
  {
    OFFSET -8.63674 0.00547028 0
    CHANNELS 6 Xposition Yposition Zposition Zrotation Xrotation Yrotation
    JOINT RightKnee
    {
      OFFSET 5.48981e-005 -44.4933 -2.13963
      CHANNELS 6 Xposition Yposition Zposition Zrotation Xrotation Yrotation
      JOINT RightAnkle
      {
        OFFSET 0 -43.4408 -3.54051
        CHANNELS 6 Xposition Yposition Zposition Zrotation Xrotation Yrotation
        JOINT RightToe
        {
          OFFSET 0 -8.39271 19.1252
          CHANNELS 6 Xposition Yposition Zposition Zrotation Xrotation Yrotation
          End Site
          {
            OFFSET 0 0 0
          }
        }
      }
    }
  }
  JOINT LeftHip
  {
    OFFSET 8.63674 0.00547028 0
    CHANNELS 6 Xposition Yposition Zposition Zrotation Xrotation Yrotation
    JOINT LeftKnee
    {
      OFFSET 0 -44.4933 -2.13963
      CHANNELS 6 Xposition Yposition Zposition Zrotation Xrotation Yrotation
      JOINT LeftAnkle
      {
        OFFSET 0 -43.4407 -3.54051
        CHANNELS 6 Xposition Yposition Zposition Zrotation Xrotation Yrotation
        JOINT LeftToe
        {
          OFFSET 0 -8.39272 19.1252
          CHANNELS 6 Xposition Yposition Zposition Zrotation Xrotation Yrotation
          End Site
          {
            OFFSET 0 0 0
          }
        }
      }
    }
  }
}
MOTION
Frames:	6
Frame Time:	0.0333333
16.3092 96.4391 -7.85572 0.00887161 -0.000694742 -89.9711 0 10.5691 -1.07959 -0.0382469 0.0157277 -0.000433944 0 11.6675 1.08235 -0.0764952 0.0314625 -0.000790062 0 10.5876 3.91926e-007 -0.0764951 0.0314625 -0.00078921 0 10.5876 3.91926e-007 -0.0764952 0.0314625 -0.000787971 5.37388e-006 14.88 -1.73012e-006 0.479162 -0.343483 -0.173857 4.53816e-007 9.61466 2.16553 -0.231264 8.17045 0.03088 -3.23953 8.30385 -3.55271e-015 -4.96962e-017 2.74202e-018 -3.10601e-018 -15.1725 -4.76837e-006 3.07386e-007 34.3358 -24.0516 0.752987 -32.4113 3.54577e-006 -5.86142e-007 9.11553 11.1212 1.96285 -26.4919 2.06041e-006 1.0813 8.10283 1.25517 15.8079 3.23953 8.30385 0 -4.96962e-017 2.74202e-018 -3.10601e-018 15.1725 -4.76837e-006 -1.59996e-006 -42.2272 -38.2232 -4.25756 32.4113 -9.38672e-006 -4.44002e-006 -9.48006 16.4063 2.33487 26.4919 -8.67291e-007 1.0813 2.61988 -0.442178 -17.4042 -8.63674 0.00547028 1.90735e-006 -2.28544 -2.62747 -2.49842 5.48981e-005 -44.4933 -2.13963 2.33592 1.46728 2.27513 -1.1277e-006 -43.4408 -3.54051 -0.245821 1.2437 0.0972436 -4.74446e-006 -8.39271 19.1252 -0.0797034 -0.144931 0.0542292 8.63674 0.00547028 -1.90735e-006 -0.0348755 -2.58034 -0.01438 6.7045e-006 -44.4933 -2.13963 0.0479332 1.25997 -0.01383 7.18448e-007 -43.4407 -3.54051 0.0109199 1.28917 0.00529145 -1.06817e-006 -8.39272 19.1252 -0.000188079 0.00491148 -0.00749368 
16.3487 96.4285 -7.86541 0.0850655 -0.0204917 -89.7832 0 10.5691 -1.07959 -0.279643 0.111007 -0.012214 0 11.6675 1.08235 -0.559253 0.222054 -0.0238832 0 10.5876 3.91926e-007 -0.559253 0.222054 -0.0238794 0 10.5876 3.91926e-007 -0.559253 0.222054 -0.0238683 5.37388e-006 14.88 -1.73012e-006 3.38479 -2.64865 -1.30489 4.53816e-007 9.61466 2.16553 -1.63004 10.0247 0.157566 -3.23953 8.30385 0 -0 -5.12492e-017 -0 -15.1725 -4.76837e-006 3.07386e-007 35.2797 -24.4396 0.851442 -32.4113 3.54577e-006 -5.86142e-007 9.01212 10.0891 2.88298 -26.4919 2.06041e-006 1.0813 6.7346 0.94835 14.2931 3.23953 8.30385 -3.55271e-015 -0 -5.12492e-017 -0 15.1725 -4.76837e-006 -1.59996e-006 -39.3621 -37.1241 -4.40492 32.4113 -9.38672e-006 -4.44002e-006 -9.81055 16.9649 2.34171 26.4919 -8.67291e-007 1.0813 3.38852 -0.584847 -17.8545 -8.63674 0.00547028 1.90735e-006 -2.30128 -2.60505 -2.66248 5.48981e-005 -44.4933 -2.13963 2.28732 1.27644 2.03751 -1.1277e-006 -43.4408 -3.54051 -0.193237 1.27702 0.213321 -4.74446e-006 -8.39271 19.1252 -1.5617 -1.84175 1.4001 8.63674 0.00547028 -1.90735e-006 -0.230134 -2.54744 0.0121035 6.7045e-006 -44.4933 -2.13963 0.352634 1.00788 -0.237614 7.18448e-007 -43.4407 -3.54051 0.179031 1.30985 0.0148789 -1.06817e-006 -8.39272 19.1252 0.0166538 -0.0589078 -0.0254719 
16.4376 96.4323 -7.86213 0.191415 0.0746848 -89.8851 8.88178e-016 10.5691 -1.07959 -0.0808983 0.00178365 -0.0698182 0 11.6675 1.08235 -0.161801 0.00367974 -0.139638 0 10.5876 3.91926e-007 -0.161801 0.00367977 -0.139652 0 10.5876 3.91926e-007 -0.161801 0.00367975 -0.139634 5.37388e-006 14.88 -1.73012e-006 0.536453 -1.72908 -0.740236 4.53816e-007 9.61466 2.16553 0.020703 9.972 -0.569614 -3.23953 8.30385 3.55271e-015 -9.93923e-017 -3.64956e-017 -0 -15.1725 -4.76837e-006 3.07386e-007 32.8959 -24.8826 0.606796 -32.4113 3.54577e-006 -5.86142e-007 8.73458 10.9388 2.69118 -26.4919 2.06041e-006 1.0813 7.33228 1.1157 15.5862 3.23953 8.30385 0 -9.93923e-017 -3.64956e-017 -0 15.1725 -4.76837e-006 -1.59996e-006 -38.7852 -38.2623 -2.94096 32.4113 -9.38672e-006 -4.44002e-006 -9.68487 16.6103 2.337 26.4919 -8.67291e-007 1.0813 2.44165 -0.418822 -17.7435 -8.63674 0.00547028 1.90735e-006 -2.20064 -2.79837 -2.61238 5.48981e-005 -44.4933 -2.13963 2.29099 1.33351 2.11509 -1.1277e-006 -43.4408 -3.54051 -0.245101 1.25725 0.225148 -4.74446e-006 -8.39271 19.1252 -7.62137 -11.5105 6.07221 8.63674 0.00547028 -1.90735e-006 -0.106812 -2.79164 0.228184 6.7045e-006 -44.4933 -2.13963 0.297776 1.22717 -0.457251 7.18448e-007 -43.4407 -3.54051 0.371163 1.08699 0.138138 -1.06817e-006 -8.39272 19.1252 -0.0432567 0.281099 -0.167049 
16.4878 96.4226 -7.84648 0.227303 0.0832011 -89.8139 -8.88178e-016 10.5691 -1.07959 0.0172538 -0.0334195 -0.0492319 8.88178e-016 11.6675 1.08235 0.0344784 -0.0668533 -0.0984779 -8.88178e-016 10.5876 3.91926e-007 0.0344784 -0.0668532 -0.0984686 8.88178e-016 10.5876 3.91926e-007 0.0344784 -0.0668532 -0.0984666 5.37388e-006 14.88 -1.73012e-006 -0.193978 -0.263948 -1.11016 4.53816e-007 9.61466 2.16553 0.363412 8.4279 -1.23604 -3.23953 8.30385 -3.55271e-015 5.26179e-038 1.21329e-019 -2.48481e-017 -15.1725 -4.76837e-006 3.07386e-007 30.8841 -24.9075 0.23618 -32.4113 3.54577e-006 -5.86142e-007 8.79939 9.85055 2.74408 -26.4919 2.06041e-006 1.0813 8.56968 1.1344 13.2931 3.23953 8.30385 -3.55271e-015 5.26179e-038 1.21329e-019 -2.48481e-017 15.1725 -4.76837e-006 -1.59996e-006 -38.3761 -38 -3.00474 32.4113 -9.38672e-006 -4.44002e-006 -9.80311 16.6797 2.33725 26.4919 -8.67291e-007 1.0813 3.09055 -0.52667 -17.5753 -8.63674 0.00547028 1.90735e-006 -2.19789 -2.89723 -2.65245 5.48981e-005 -44.4933 -2.13963 2.3237 1.44174 2.17889 -1.1277e-006 -43.4408 -3.54051 -0.457043 0.914185 0.347888 -4.74446e-006 -8.39271 19.1252 1.30971 3.55058 0.130025 8.63674 0.00547028 -1.90735e-006 -0.0913676 -2.87698 0.215849 6.7045e-006 -44.4933 -2.13963 0.323303 1.25803 -0.397926 7.18448e-007 -43.4407 -3.54051 0.235939 1.05957 -0.112223 -1.06817e-006 -8.39272 19.1252 -0.0692142 0.308141 -0.0118466 
16.5172 96.4308 -7.83808 0.0818703 0.0203209 -89.8881 0 10.5691 -1.07959 -0.0130505 -0.0112196 -0.0735447 0 11.6675 1.08235 -0.0261133 -0.0224244 -0.147037 0 10.5876 3.91926e-007 -0.0261133 -0.0224244 -0.14705 0 10.5876 3.91926e-007 -0.0261133 -0.0224244 -0.147069 5.37388e-006 14.88 -1.73012e-006 -0.152851 -1.19311 -1.38644 4.53816e-007 9.61466 2.16553 0.585438 9.76403 -1.55434 -3.23953 8.30385 0 2.48481e-017 3.88251e-019 -0 -15.1725 -4.76837e-006 3.07386e-007 29.713 -24.9583 0.508924 -32.4113 3.54577e-006 -5.86142e-007 9.0267 10.6435 1.79949 -26.4919 2.06041e-006 1.0813 9.55582 1.36704 14.5229 3.23953 8.30385 0 2.48481e-017 3.88251e-019 -0 15.1725 -4.76837e-006 -1.59996e-006 -36.5422 -38.3914 -2.55484 32.4113 -9.38672e-006 -4.44002e-006 -9.7436 15.5913 2.33732 26.4919 -8.67291e-007 1.0813 1.05954 -0.173587 -16.965 -8.63674 0.00547028 1.90735e-006 -2.24824 -2.77849 -2.59189 5.48981e-005 -44.4933 -2.13963 2.351 1.31635 2.12401 -1.1277e-006 -43.4408 -3.54051 -0.401675 1.46822 -0.28931 -4.74446e-006 -8.39271 19.1252 -0.558893 0.00943726 0.984337 8.63674 0.00547028 -1.90735e-006 -0.11539 -2.68018 0.298749 6.7045e-006 -44.4933 -2.13963 0.251269 1.09157 -0.443984 7.18448e-007 -43.4407 -3.54051 0.189854 1.23314 -0.053968 -1.06817e-006 -8.39272 19.1252 -0.0122321 0.175962 -0.223209 
16.5392 96.4212 -7.82885 0.0784316 0.0209801 -89.862 0 10.5691 -1.07959 -0.0264112 0.00529444 -0.025371 -8.88178e-016 11.6675 1.08235 -0.052819 0.0106003 -0.0506194 0 10.5876 3.91926e-007 -0.052819 0.0106003 -0.0506447 0 10.5876 3.91926e-007 -0.052819 0.0106003 -0.050642 5.37388e-006 14.88 -1.73012e-006 -0.972757 -0.925061 -1.58744 4.53816e-007 9.61466 2.16553 1.91346 9.55402 -2.37749 -3.23953 8.30385 -3.55271e-015 4.96962e-017 -1.90728e-017 -0 -15.1725 -4.76837e-006 3.07386e-007 28.0737 -25.6657 0.483551 -32.4113 3.54577e-006 -5.86142e-007 9.01105 9.89962 0.668151 -26.4919 2.06041e-006 1.0813 9.72074 1.28263 13.275 3.23953 8.30385 -3.55271e-015 4.96962e-017 -1.90728e-017 -0 15.1725 -4.76837e-006 -1.59996e-006 -35.0601 -38.3428 -3.48457 32.4113 -9.38672e-006 -4.44002e-006 -9.66793 15.2065 2.33749 26.4919 -8.67291e-007 1.0813 1.77529 -0.281214 -16.2801 -8.63674 0.00547028 1.90735e-006 -2.27247 -2.90423 -2.55383 5.48981e-005 -44.4933 -2.13963 2.2608 1.66856 2.00927 -1.1277e-006 -43.4408 -3.54051 -0.117328 1.19272 0.311354 -4.74446e-006 -8.39271 19.1252 -0.197491 -0.567654 -0.03329 8.63674 0.00547028 -1.90735e-006 -0.136669 -2.59148 0.188753 6.7045e-006 -44.4933 -2.13963 0.234753 0.922808 -0.217381 7.18448e-007 -43.4407 -3.54051 0.343046 1.09424 -0.0384933 -1.06817e-006 -8.39272 19.1252 -0.107946 0.633346 -0.28705 
